<svg width="285" height="49" viewBox="0 0 285 49" fill="none" xmlns="http://www.w3.org/2000/svg">
<path d="M25.176 26.968L25.112 19.352C25.112 11.8 24.856 6.78666 24.344 4.312C24.2587 4.01333 24.216 3.77866 24.216 3.608C24.216 2.88266 24.9413 2.264 26.392 1.752C27.8427 1.24 28.9947 0.983997 29.848 0.983997C30.7013 0.983997 31.128 1.24 31.128 1.752C31.128 1.79467 31.0853 2.02933 31 2.456C30.0187 7.704 29.528 16.0453 29.528 27.48C29.528 35.288 29.976 40.8987 30.872 44.312C31.0427 44.8667 31.128 45.1653 31.128 45.208C31.128 46.104 30.1467 46.8293 28.184 47.384C26.2213 47.9813 24.8347 48.28 24.024 48.28C22.744 48.28 21.8693 47.9813 21.4 47.384C20.4613 46.1893 18.9253 42.84 16.792 37.336C14.7013 31.7893 12.8667 26.6267 11.288 21.848L8.856 14.68C8.77067 14.4667 8.664 14.36 8.536 14.36C8.36533 14.36 8.17333 14.5093 7.96 14.808C7.74667 18.776 7.64 22.744 7.64 26.712C7.64 30.68 7.66133 33.7307 7.704 35.864C7.78933 37.9973 7.87467 39.6187 7.96 40.728C8.04533 41.8373 8.13067 42.7333 8.216 43.416C8.30133 44.056 8.36533 44.5253 8.408 44.824C8.49333 45.1227 8.536 45.336 8.536 45.464C8.536 46.2747 7.832 46.8933 6.424 47.32C5.016 47.7893 3.736 48.024 2.584 48.024C1.47467 48.024 0.92 47.768 0.92 47.256C0.92 47 0.984 46.68 1.112 46.296C1.24 45.912 1.38933 45.4213 1.56 44.824C1.98667 43.3307 2.28533 40.6213 2.456 36.696C2.62667 32.728 2.712 28.2267 2.712 23.192C2.712 18.1147 2.648 14.424 2.52 12.12C2.30667 8.36533 1.92267 5.848 1.368 4.568C1.24 4.44 1.176 4.26933 1.176 4.056C1.176 3.37333 2.30667 2.712 4.568 2.072C6.82933 1.432 8.57867 1.112 9.816 1.112C11.096 1.112 11.8427 1.13333 12.056 1.176C12.6533 1.13333 13.016 1.47467 13.144 2.2C14.3813 6.68 16.1093 11.9493 18.328 18.008C20.5893 24.0667 22.5947 28.696 24.344 31.896C24.5573 32.1093 24.728 32.216 24.856 32.216C25.0693 32.216 25.176 30.4667 25.176 26.968ZM41.2545 22.872C40.1452 22.9147 39.3345 22.9573 38.8225 23C38.3532 23 38.1185 22.872 38.1185 22.616C38.1185 22.36 38.2465 22.104 38.5025 21.848C41.2332 19.3307 45.8412 18.072 52.3265 18.072C54.5452 18.072 56.2945 18.264 57.5745 18.648L58.2145 18.84C58.7265 19.0533 58.9825 19.288 58.9825 19.544C58.9825 19.7573 58.8332 19.928 58.5345 20.056C57.3825 20.3973 56.2732 20.952 55.2065 21.72C54.1398 22.4453 53.6065 22.9573 53.6065 23.256L53.9905 23.704C55.3558 24.472 56.4012 25.688 57.1265 27.352C57.8945 29.016 58.3212 30.488 58.4065 31.768L58.5345 33.752C58.5345 37.976 57.3612 41.4533 55.0145 44.184C52.6678 46.9147 49.4678 48.28 45.4145 48.28C43.3665 48.28 41.5958 47.9173 40.1025 47.192C38.6092 46.4667 37.4998 45.656 36.7745 44.76C36.0918 43.8213 35.5372 42.776 35.1105 41.624C34.5985 40.0453 34.3425 38.424 34.3425 36.76C34.3425 35.0533 34.6198 33.3467 35.1745 31.64C35.7718 29.9333 36.4332 28.6747 37.1585 27.864C37.9265 27.0533 38.7798 26.392 39.7185 25.88C40.9132 25.24 41.8732 24.92 42.5985 24.92C43.3238 24.92 43.6865 25.0693 43.6865 25.368L43.3025 26.008C42.3638 27.1173 41.6812 28.568 41.2545 30.36C40.8705 32.152 40.6785 33.752 40.6785 35.16C40.6785 36.5253 40.8492 37.8907 41.1905 39.256C41.5318 40.6213 41.9158 41.6453 42.3425 42.328C42.7692 42.968 43.2598 43.4587 43.8145 43.8C44.6252 44.312 45.4785 44.568 46.3745 44.568C47.2705 44.568 48.1452 44.2267 48.9985 43.544C49.8518 42.8187 50.4705 41.88 50.8545 40.728C51.6225 38.5947 52.0065 36.3973 52.0065 34.136C52.0065 30.552 51.0892 27.7787 49.2545 25.816C47.4625 23.8533 44.7958 22.872 41.2545 22.872ZM61.67 47.448C62.438 42.84 62.822 37.3147 62.822 30.872C62.822 24.4293 62.63 20.248 62.246 18.328C62.246 17.7733 62.886 17.496 64.166 17.496C66.1287 17.496 67.43 18.2427 68.07 19.736C68.1127 19.864 68.2193 19.928 68.39 19.928C68.5607 19.928 68.6887 19.8853 68.774 19.8C70.0967 18.4347 72.1447 17.752 74.918 17.752C77.6913 17.752 79.8887 18.456 81.51 19.864C83.1313 21.272 83.942 23.32 83.942 26.008C83.942 27.6293 83.7927 29.9333 83.494 32.92C83.238 35.9067 83.11 38.1253 83.11 39.576C83.11 43.032 83.686 45.528 84.838 47.064C85.0087 47.2773 85.094 47.4907 85.094 47.704C85.094 48.2587 84.4967 48.536 83.302 48.536C78.0113 48.536 75.366 46.1893 75.366 41.496C75.366 39.704 75.7713 37.208 76.582 34.008C77.3927 30.808 77.798 28.376 77.798 26.712C77.798 23.2987 76.39 21.592 73.574 21.592C72.2087 21.592 71.1633 21.9973 70.438 22.808C69.7553 23.6187 69.3713 24.5573 69.286 25.624C69.2007 26.648 69.158 28.6107 69.158 31.512C69.158 35.9493 69.3073 39.8107 69.606 43.096L69.734 44.504C69.734 45.6987 68.9447 46.616 67.366 47.256C65.83 47.9387 64.486 48.28 63.334 48.28C62.2247 48.28 61.67 48.0027 61.67 47.448ZM86.2725 22.04L86.4645 19.48C86.5072 19.096 86.8058 18.904 87.3605 18.904H89.6005L89.3445 13.784V13.528C89.3445 12.5467 90.0912 11.608 91.5845 10.712C93.0778 9.816 94.4432 9.368 95.6805 9.368C96.0645 9.368 96.2565 9.53867 96.2565 9.88V9.944C96.0858 11.096 95.9152 14.0613 95.7445 18.84C97.6218 18.84 98.8165 18.7973 99.3285 18.712C99.8405 18.6267 100.118 18.584 100.161 18.584C100.459 18.584 100.609 18.84 100.609 19.352C100.609 19.864 100.374 20.5253 99.9045 21.336C99.4352 22.104 98.9232 22.5093 98.3685 22.552H95.6805C95.6378 24.0027 95.6165 26.456 95.6165 29.912C95.6165 33.3253 95.6378 36.1413 95.6805 38.36C95.7658 40.5787 95.8512 42.264 95.9365 43.416C96.0218 44.5253 96.1072 45.4213 96.1925 46.104C96.3205 46.7867 96.4058 47.2773 96.4485 47.576C96.5338 47.8747 96.5765 48.0667 96.5765 48.152C96.5765 48.5787 96.2992 48.8133 95.7445 48.856C94.0805 48.856 92.4165 48.6213 90.7525 48.152C89.1312 47.6827 88.3205 46.872 88.3205 45.72C89.2165 38.552 89.6645 30.8507 89.6645 22.616C88.5125 22.616 87.6378 22.6587 87.0405 22.744H86.9765C86.5925 22.744 86.3578 22.5093 86.2725 22.04ZM107.817 22.872C106.708 22.9147 105.897 22.9573 105.385 23C104.916 23 104.681 22.872 104.681 22.616C104.681 22.36 104.809 22.104 105.065 21.848C107.796 19.3307 112.404 18.072 118.889 18.072C121.108 18.072 122.857 18.264 124.137 18.648L124.777 18.84C125.289 19.0533 125.545 19.288 125.545 19.544C125.545 19.7573 125.396 19.928 125.097 20.056C123.945 20.3973 122.836 20.952 121.769 21.72C120.702 22.4453 120.169 22.9573 120.169 23.256L120.553 23.704C121.918 24.472 122.964 25.688 123.689 27.352C124.457 29.016 124.884 30.488 124.969 31.768L125.097 33.752C125.097 37.976 123.924 41.4533 121.577 44.184C119.23 46.9147 116.03 48.28 111.977 48.28C109.929 48.28 108.158 47.9173 106.665 47.192C105.172 46.4667 104.062 45.656 103.337 44.76C102.654 43.8213 102.1 42.776 101.673 41.624C101.161 40.0453 100.905 38.424 100.905 36.76C100.905 35.0533 101.182 33.3467 101.737 31.64C102.334 29.9333 102.996 28.6747 103.721 27.864C104.489 27.0533 105.342 26.392 106.281 25.88C107.476 25.24 108.436 24.92 109.161 24.92C109.886 24.92 110.249 25.0693 110.249 25.368L109.865 26.008C108.926 27.1173 108.244 28.568 107.817 30.36C107.433 32.152 107.241 33.752 107.241 35.16C107.241 36.5253 107.412 37.8907 107.753 39.256C108.094 40.6213 108.478 41.6453 108.905 42.328C109.332 42.968 109.822 43.4587 110.377 43.8C111.188 44.312 112.041 44.568 112.937 44.568C113.833 44.568 114.708 44.2267 115.561 43.544C116.414 42.8187 117.033 41.88 117.417 40.728C118.185 38.5947 118.569 36.3973 118.569 34.136C118.569 30.552 117.652 27.7787 115.817 25.816C114.025 23.8533 111.358 22.872 107.817 22.872ZM128.233 47.448C129.001 42.84 129.385 37.3147 129.385 30.872C129.385 24.4293 129.193 20.248 128.809 18.328C128.809 17.7733 129.449 17.496 130.729 17.496C132.691 17.496 133.993 18.2427 134.633 19.736C134.675 19.864 134.782 19.928 134.953 19.928C135.123 19.928 135.251 19.8853 135.337 19.8C136.659 18.4347 138.707 17.752 141.481 17.752C144.254 17.752 146.451 18.456 148.073 19.864C149.694 21.272 150.505 23.32 150.505 26.008C150.505 27.6293 150.355 29.9333 150.057 32.92C149.801 35.9067 149.673 38.1253 149.673 39.576C149.673 43.032 150.249 45.528 151.401 47.064C151.571 47.2773 151.657 47.4907 151.657 47.704C151.657 48.2587 151.059 48.536 149.865 48.536C144.574 48.536 141.929 46.1893 141.929 41.496C141.929 39.704 142.334 37.208 143.145 34.008C143.955 30.808 144.361 28.376 144.361 26.712C144.361 23.2987 142.953 21.592 140.137 21.592C138.771 21.592 137.726 21.9973 137.001 22.808C136.318 23.6187 135.934 24.5573 135.849 25.624C135.763 26.648 135.72 28.6107 135.72 31.512C135.72 35.9493 135.87 39.8107 136.169 43.096L136.297 44.504C136.297 45.6987 135.507 46.616 133.929 47.256C132.393 47.9387 131.049 48.28 129.897 48.28C128.787 48.28 128.233 48.0027 128.233 47.448ZM163.203 18.2L163.267 26.2L163.011 37.272C163.054 37.4427 163.118 37.528 163.203 37.528C163.288 37.528 163.352 37.4853 163.395 37.4C164.248 36.2053 165.294 35.608 166.531 35.608C167.811 35.608 168.451 35.864 168.451 36.376C168.451 37.9973 168.75 39.256 169.347 40.152C169.987 41.0053 170.862 41.432 171.971 41.432C173.123 41.432 174.211 40.664 175.235 39.128C176.302 37.592 176.835 35.544 176.835 32.984C176.835 32.1307 176.664 31.1067 176.323 29.912C175.64 27.5227 174.36 25.9227 172.483 25.112C171.118 24.5573 168.899 24.28 165.827 24.28C165.486 24.28 165.315 24.0453 165.315 23.576C165.315 21.1867 165.742 19.9493 166.595 19.864C167.747 19.864 168.963 19.5653 170.243 18.968C172.803 17.7733 174.083 15.32 174.083 11.608C174.083 7.59733 171.779 5.592 167.171 5.592L165.187 5.72C164.419 5.89066 163.992 6.21066 163.907 6.68V6.872C163.438 8.57867 163.203 12.3547 163.203 18.2ZM153.795 47.896L153.923 47.192C154.35 46.424 154.712 43.3093 155.011 37.848C155.31 32.344 155.459 27.224 155.459 22.488C155.459 17.7093 155.352 13.8907 155.139 11.032C154.968 8.13066 154.456 6.04 153.603 4.76C153.432 4.54667 153.347 4.29066 153.347 3.992C153.347 3.69333 153.603 3.43733 154.115 3.224C157.614 1.85867 162.371 1.176 168.387 1.176C169.88 1.176 171.502 1.38933 173.251 1.816C175 2.2 176.43 2.69066 177.539 3.288C178.691 3.88533 179.715 4.80266 180.611 6.04C181.55 7.27733 182.083 8.74933 182.211 10.456C182.211 16.6427 179.651 20.2053 174.531 21.144C174.275 21.2293 174.147 21.336 174.147 21.464C174.147 21.5493 174.254 21.656 174.467 21.784C177.112 22.2107 179.331 23.2773 181.123 24.984C182.019 25.7947 182.83 27.0533 183.555 28.76C184.28 30.4667 184.643 32.4293 184.643 34.648C184.643 37.5067 183.811 40.216 182.147 42.776C180.782 44.8667 178.798 46.36 176.195 47.256C174.744 47.768 173.123 48.024 171.331 48.024C166.851 48.024 164.014 46.5947 162.819 43.736C162.776 43.608 162.712 43.544 162.627 43.544L162.371 43.8C161.475 46.7867 158.915 48.344 154.691 48.472C154.094 48.472 153.795 48.28 153.795 47.896ZM206.69 29.848L206.946 32.088C206.946 32.8987 206.178 33.304 204.642 33.304C201.527 33.304 199.97 32.1307 199.97 29.784C199.97 29.2293 200.119 28.4613 200.418 27.48C200.717 26.4987 200.866 25.6453 200.866 24.92C200.866 24.1947 200.653 23.576 200.226 23.064C199.799 22.5093 199.181 22.232 198.37 22.232C197.559 22.232 196.855 22.5307 196.258 23.128C195.703 23.6827 195.362 24.2587 195.234 24.856L194.978 25.752C194.722 27.0747 194.594 29.2933 194.594 32.408C194.594 35.48 194.637 37.912 194.722 39.704C194.807 41.4533 194.893 42.6693 194.978 43.352C195.063 43.992 195.106 44.376 195.106 44.504C195.106 45.5707 194.445 46.424 193.122 47.064C191.799 47.7467 190.477 48.088 189.154 48.088C187.831 48.088 187.17 47.8107 187.17 47.256L187.49 45.272C188.087 41.56 188.386 36.7173 188.386 30.744C188.386 24.7707 188.173 20.7173 187.746 18.584C187.746 18.072 188.194 17.816 189.09 17.816C191.394 17.816 192.93 18.6053 193.698 20.184C193.741 20.3547 193.805 20.44 193.89 20.44C194.018 20.44 194.317 20.248 194.786 19.864C196.194 18.712 197.858 18.136 199.778 18.136C200.973 18.136 202.167 18.3707 203.362 18.84C205.794 19.8213 207.01 21.8693 207.01 24.984L206.69 29.848ZM214.567 22.872C213.458 22.9147 212.647 22.9573 212.135 23C211.666 23 211.431 22.872 211.431 22.616C211.431 22.36 211.559 22.104 211.815 21.848C214.546 19.3307 219.154 18.072 225.639 18.072C227.858 18.072 229.607 18.264 230.887 18.648L231.527 18.84C232.039 19.0533 232.295 19.288 232.295 19.544C232.295 19.7573 232.146 19.928 231.847 20.056C230.695 20.3973 229.586 20.952 228.519 21.72C227.452 22.4453 226.919 22.9573 226.919 23.256L227.303 23.704C228.668 24.472 229.714 25.688 230.439 27.352C231.207 29.016 231.634 30.488 231.719 31.768L231.847 33.752C231.847 37.976 230.674 41.4533 228.327 44.184C225.98 46.9147 222.78 48.28 218.727 48.28C216.679 48.28 214.908 47.9173 213.415 47.192C211.922 46.4667 210.812 45.656 210.087 44.76C209.404 43.8213 208.85 42.776 208.423 41.624C207.911 40.0453 207.655 38.424 207.655 36.76C207.655 35.0533 207.932 33.3467 208.487 31.64C209.084 29.9333 209.746 28.6747 210.471 27.864C211.239 27.0533 212.092 26.392 213.031 25.88C214.226 25.24 215.186 24.92 215.911 24.92C216.636 24.92 216.999 25.0693 216.999 25.368L216.615 26.008C215.676 27.1173 214.994 28.568 214.567 30.36C214.183 32.152 213.991 33.752 213.991 35.16C213.991 36.5253 214.162 37.8907 214.503 39.256C214.844 40.6213 215.228 41.6453 215.655 42.328C216.082 42.968 216.572 43.4587 217.127 43.8C217.938 44.312 218.791 44.568 219.687 44.568C220.583 44.568 221.458 44.2267 222.311 43.544C223.164 42.8187 223.783 41.88 224.167 40.728C224.935 38.5947 225.319 36.3973 225.319 34.136C225.319 30.552 224.402 27.7787 222.567 25.816C220.775 23.8533 218.108 22.872 214.567 22.872ZM258.786 48.28C258.359 48.5787 258.039 48.728 257.826 48.728C257.357 48.728 257.037 48.536 256.866 48.152C255.586 45.592 254.519 42.136 253.666 37.784C253.623 37.6133 253.559 37.528 253.474 37.528L253.09 37.784C251.938 39.832 250.594 41.7307 249.058 43.48C247.565 45.2293 246.349 46.4667 245.41 47.192L244.002 48.28C243.575 48.664 243.234 48.856 242.978 48.856C242.509 48.856 242.189 48.6427 242.018 48.216C241.079 46.424 239.991 42.9467 238.754 37.784L238.178 35.16C237.367 31.4053 236.535 28.3973 235.682 26.136C234.871 23.8747 234.253 22.552 233.826 22.168L233.186 21.592C232.802 21.464 232.61 21.2507 232.61 20.952C232.61 20.3547 233.485 19.7147 235.234 19.032C237.026 18.3493 238.413 18.008 239.394 18.008C240.375 18.008 241.015 18.4133 241.314 19.224C241.655 19.992 242.167 22.1893 242.85 25.816C244.642 35.3733 245.943 40.152 246.754 40.152C247.01 40.152 247.287 39.9387 247.586 39.512C247.927 39.0427 248.311 38.488 248.738 37.848C249.207 37.208 249.826 36.0987 250.594 34.52C251.362 32.9413 251.746 31.5547 251.746 30.36C251.746 30.1467 251.597 29.3787 251.298 28.056C250.999 26.6907 250.551 25.3893 249.954 24.152C249.399 22.872 248.951 22.1467 248.61 21.976C247.842 21.5493 247.458 21.1867 247.458 20.888C247.458 20.376 248.333 19.7787 250.082 19.096C251.831 18.3707 253.41 18.008 254.818 18.008C255.458 18.008 255.906 18.392 256.162 19.16C256.802 21.1653 257.57 24.7707 258.466 29.976C259.618 36.632 260.685 39.96 261.666 39.96C262.007 39.96 262.519 39.4907 263.202 38.552C263.885 37.5707 264.546 36.1627 265.186 34.328C265.869 32.4933 266.21 30.936 266.21 29.656C266.21 28.3333 266.146 27.3307 266.018 26.648C265.933 25.9227 265.57 25.0907 264.93 24.152C264.29 23.2133 263.565 22.68 262.754 22.552C261.943 22.3813 261.538 22.104 261.538 21.72C261.538 21.1227 262.413 20.3547 264.162 19.416C265.954 18.4773 267.789 18.008 269.666 18.008C271.458 18.008 272.354 19.8 272.354 23.384C272.354 27.864 271.031 32.472 268.386 37.208C265.741 41.944 262.541 45.6347 258.786 48.28ZM279.542 41.56L281.078 41.496C282.102 41.496 282.784 41.7307 283.126 42.2C283.51 42.6267 283.702 43.416 283.702 44.568C283.702 45.6773 283.446 46.488 282.934 47C282.464 47.5547 281.504 47.832 280.054 47.832C278.646 47.832 277.643 47.5547 277.046 47C276.491 46.4453 276.214 45.2293 276.214 43.352C276.214 41.4747 276.491 40.536 277.046 40.536L277.75 41.048C278.219 41.3893 278.816 41.56 279.542 41.56ZM275.766 5.08C275.723 4.86666 275.702 4.54667 275.702 4.12C275.702 3.69333 276.043 3.26667 276.726 2.84C277.451 2.41333 278.283 2.11466 279.222 1.944C280.843 1.60266 282.144 1.432 283.126 1.432C284.107 1.432 284.598 1.85867 284.598 2.712L284.47 3.48C282.848 10.2213 282.038 19.7147 282.038 31.96C282.038 33.3253 282.059 34.2213 282.102 34.648C282.144 35.032 282.144 35.288 282.102 35.416C282.059 35.544 281.824 35.736 281.398 35.992C281.014 36.2053 280.48 36.312 279.798 36.312C278.304 36.312 277.536 35.8213 277.494 34.84C277.494 19.6933 276.918 9.77333 275.766 5.08Z" fill="#EAEAEA"/>
</svg>
